<?xml version="1.0" encoding="UTF-8" standalone="no"?>
<svg
   xmlns:dc="http://purl.org/dc/elements/1.1/"
   xmlns:cc="http://creativecommons.org/ns#"
   xmlns:rdf="http://www.w3.org/1999/02/22-rdf-syntax-ns#"
   xmlns:svg="http://www.w3.org/2000/svg"
   xmlns="http://www.w3.org/2000/svg"
   xmlns:sodipodi="http://sodipodi.sourceforge.net/DTD/sodipodi-0.dtd"
   xmlns:inkscape="http://www.inkscape.org/namespaces/inkscape"
   width="24"
   height="24"
   viewBox="0 0 24 24"
   fill="none"
   stroke="#000"
   stroke-width="2"
   stroke-linecap="round"
   stroke-linejoin="round"
   version="1.1"
   id="svg3715"
   sodipodi:docname="icon_off.svg"
   inkscape:version="0.92.2 (5c3e80d, 2017-08-06)"
   inkscape:export-filename="C:\projects\REClipboard\assets\icon_off.png"
   inkscape:export-xdpi="1024"
   inkscape:export-ydpi="1024">
  <metadata
     id="metadata3721">
    <rdf:RDF>
      <cc:Work
         rdf:about="">
        <dc:format>image/svg+xml</dc:format>
        <dc:type
           rdf:resource="http://purl.org/dc/dcmitype/StillImage" />
        <dc:title></dc:title>
      </cc:Work>
    </rdf:RDF>
  </metadata>
  <defs
     id="defs3719" />
  <sodipodi:namedview
     pagecolor="#ffffff"
     bordercolor="#666666"
     borderopacity="1"
     objecttolerance="10"
     gridtolerance="10"
     guidetolerance="10"
     inkscape:pageopacity="0"
     inkscape:pageshadow="2"
     inkscape:window-width="1920"
     inkscape:window-height="1017"
     id="namedview3717"
     showgrid="false"
     inkscape:zoom="24.98444"
     inkscape:cx="6.2908319"
     inkscape:cy="10.734679"
     inkscape:window-x="-8"
     inkscape:window-y="-8"
     inkscape:window-maximized="1"
     inkscape:current-layer="svg3715" />
  <path
     style="color:#000000;font-style:normal;font-variant:normal;font-weight:normal;font-stretch:normal;font-size:medium;line-height:normal;font-family:sans-serif;font-variant-ligatures:normal;font-variant-position:normal;font-variant-caps:normal;font-variant-numeric:normal;font-variant-alternates:normal;font-feature-settings:normal;text-indent:0;text-align:start;text-decoration:none;text-decoration-line:none;text-decoration-style:solid;text-decoration-color:#000000;letter-spacing:normal;word-spacing:normal;text-transform:none;writing-mode:lr-tb;direction:ltr;text-orientation:mixed;dominant-baseline:auto;baseline-shift:baseline;text-anchor:start;white-space:normal;shape-padding:0;clip-rule:nonzero;display:inline;overflow:visible;visibility:visible;opacity:1;isolation:auto;mix-blend-mode:normal;color-interpolation:sRGB;color-interpolation-filters:linearRGB;solid-color:#000000;solid-opacity:1;vector-effect:none;fill:#ffffff;fill-opacity:1;fill-rule:nonzero;stroke:none;stroke-width:2.1819315;stroke-linecap:butt;stroke-linejoin:miter;stroke-miterlimit:4;stroke-dasharray:none;stroke-dashoffset:0;stroke-opacity:1;color-rendering:auto;image-rendering:auto;shape-rendering:auto;text-rendering:auto;enable-background:accumulate"
     d="m 5.4550781,2.1816406 c -1.7946491,0 -3.2734375,1.4787884 -3.2734375,3.2734375 V 20.728516 C 2.181641,22.523164 3.6604293,24 5.4550781,24 H 18.544922 c 1.794649,0 3.273437,-1.476835 3.273437,-3.271484 V 5.4550781 c 0,-1.7946494 -1.478788,-3.273438 -3.273437,-3.2734375 h -2.181641 a 1.0910748,1.0910748 0 1 0 0,2.1816406 h 2.181641 c 0.615446,-1e-7 1.091797,0.476351 1.091797,1.0917969 V 20.728516 c 0,0.615445 -0.476351,1.089844 -1.091797,1.089843 H 5.4550781 c -0.6154457,0 -1.0917967,-0.474398 -1.0917969,-1.089843 V 5.4550781 c 0,-0.6154458 0.4763511,-1.0917969 1.0917969,-1.0917969 h 2.1816407 a 1.0910748,1.0910748 0 1 0 0,-2.1816406 z"
     id="path3711"
     inkscape:connector-curvature="0" />
  <path
     style="color:#000000;font-style:normal;font-variant:normal;font-weight:normal;font-stretch:normal;font-size:medium;line-height:normal;font-family:sans-serif;font-variant-ligatures:normal;font-variant-position:normal;font-variant-caps:normal;font-variant-numeric:normal;font-variant-alternates:normal;font-feature-settings:normal;text-indent:0;text-align:start;text-decoration:none;text-decoration-line:none;text-decoration-style:solid;text-decoration-color:#000000;letter-spacing:normal;word-spacing:normal;text-transform:none;writing-mode:lr-tb;direction:ltr;text-orientation:mixed;dominant-baseline:auto;baseline-shift:baseline;text-anchor:start;white-space:normal;shape-padding:0;clip-rule:nonzero;display:inline;overflow:visible;visibility:visible;opacity:1;isolation:auto;mix-blend-mode:normal;color-interpolation:sRGB;color-interpolation-filters:linearRGB;solid-color:#000000;solid-opacity:1;vector-effect:none;fill:#ffffff;fill-opacity:1;fill-rule:nonzero;stroke:none;stroke-width:2.1819315;stroke-linecap:butt;stroke-linejoin:miter;stroke-miterlimit:4;stroke-dasharray:none;stroke-dashoffset:0;stroke-opacity:1;color-rendering:auto;image-rendering:auto;shape-rendering:auto;text-rendering:auto;enable-background:accumulate"
     d="M 8.7265625,0 C 7.5366432,0 6.5449219,0.99172129 6.5449219,2.1816406 v 2.1816406 c 0,1.1899194 0.9917213,2.1816407 2.1816406,2.1816407 h 6.5468755 c 1.189919,0 2.18164,-0.991721 2.18164,-2.1816407 V 2.1816406 C 17.455078,0.99172093 16.463357,0 15.273438,0 Z m 0,2.1816406 H 15.273438 V 4.3632812 H 8.7265625 Z"
     id="rect3713"
     inkscape:connector-curvature="0" />
  <g
     aria-label="RE"
     style="font-style:normal;font-weight:normal;font-size:8.93182278px;line-height:1.25;font-family:sans-serif;letter-spacing:0px;word-spacing:0px;fill:#ffffff;fill-opacity:1;stroke:none;stroke-width:0.44659114"
     id="text3725"
     transform="matrix(0.97597876,0,0,0.97597876,0.19941393,0.6581557)">
    <path
       d="M 6.6957531,16.212126 V 9.8185456 h 2.7170535 q 1.0248914,0 1.4871834,0.1744497 0.466653,0.1700887 0.745772,0.6105737 0.27912,0.440485 0.27912,1.007447 0,0.719605 -0.423041,1.190619 -0.42304,0.466653 -1.26476,0.588767 0.418679,0.24423 0.689076,0.536433 0.274759,0.292203 0.73705,1.037976 l 0.780663,1.247315 H 10.89999 L 9.9666843,14.82089 Q 9.4695027,14.075117 9.2863306,13.883223 9.1031584,13.686967 8.8981801,13.617187 8.6932017,13.543046 8.2483551,13.543046 H 7.9866806 v 2.66908 z m 1.2909275,-3.689611 h 0.9551119 q 0.9289445,0 1.1600905,-0.0785 0.231146,-0.0785 0.361983,-0.270397 0.130837,-0.191895 0.130837,-0.479737 0,-0.322731 -0.17445,-0.518987 Q 10.250165,10.974275 9.9361556,10.92194 9.7791509,10.900134 8.9941274,10.900134 H 7.9866806 Z"
       style="font-style:normal;font-variant:normal;font-weight:bold;font-stretch:normal;line-height:0;font-family:Arial;-inkscape-font-specification:'Arial Bold';letter-spacing:-0.5225116px;fill:#ffffff;stroke-width:0.44659114"
       id="path3727"
       inkscape:connector-curvature="0" />
    <path
       d="M 12.623518,16.212126 V 9.8185456 h 4.740669 v 1.0815884 h -3.449742 v 1.417403 h 3.209874 v 1.077227 h -3.209874 v 1.740135 h 3.571857 v 1.077227 z"
       style="font-style:normal;font-variant:normal;font-weight:bold;font-stretch:normal;line-height:0;font-family:Arial;-inkscape-font-specification:'Arial Bold';letter-spacing:-0.5225116px;fill:#ffffff;stroke-width:0.44659114"
       id="path3729"
       inkscape:connector-curvature="0" />
  </g>
  <g
     id="g822"
     transform="translate(-1.3180354e-7,0.0549715)">
    <rect
       transform="rotate(45)"
       y="-12.038871"
       x="13.931692"
       height="24"
       width="6"
       id="rect11"
       style="fill:#ff0000;stroke:none" />
    <rect
       transform="rotate(135)"
       style="fill:#ff0000;stroke:none"
       id="rect818"
       width="6"
       height="24"
       x="-3.0388708"
       y="-28.931692" />
  </g>
</svg>
